{"title":"Wish I Was Here (2014) TS [RUS]","uid":10783681,"size":1468739584,"categoryP":"video","categoryS":"movies","magnet":"?xt=urn:btih:2246cdcdfa32f1e3d02922923b8ca1c5a82130e0&amp;dn=Wish+I+Was+Here+%282014%29+TS+%5BRUS%5D&amp;tr=udp%3A%2F%2Ftracker.openbittorrent.com%3A80&amp;tr=udp%3A%2F%2Fopen.demonii.com%3A1337&amp;tr=udp%3A%2F%2Ftracker.coppersurfer.tk%3A6969&amp;tr=udp%3A%2F%2Fexodus.desync.com%3A6969","seeders":10,"leechers":0,"uploader":"yfjfrj","files":1,"time":1408149885,"description":"Aidan Bloom is a 35-year-old man who finds himself at major crossroads, which forces him to examine his life, his career, and his family.\n\nMI:\nGeneral\nComplete name                            : D:moviesWish.I.Was.Here.D.2014.TS.avi\nFormat                                   : AVI\nFormat/Info                              : Audio Video Interleave\nFile size                                : 1.37 GiB\nDuration                                 : 1h 35mn\nOverall bit rate                         : 2 044 Kbps\nMovie name                               : Wish.I.Was.Here.D.2014.TS.ELEKTRI4KA\nDirector                                 : ELEKTRI4KA\nWriting application                      : VirtualDubMod 1.5.10.3 | www.virtualdub-fr.org || (build 2550/release)\nOriginal source form/Name                : Movie\nCopyright                                : uniongang.tv\n\nVideo\nID                                       : 0\nFormat                                   : MPEG-4 Visual\nFormat profile                           : Advanced Simple@L5\nFormat settings, BVOP                    : 2\nFormat settings, QPel                    : No\nFormat settings, GMC                     : No warppoints\nFormat settings, Matrix                  : Custom\nCodec ID                                 : XVID\nCodec ID/Hint                            : XviD\nDuration                                 : 1h 35mn\nBit rate                                 : 1 840 Kbps\nWidth                                    : 720 pixels\nHeight                                   : 384 pixels\nDisplay aspect ratio                     : 1.85:1\nFrame rate                               : 29.970 fps\nColor space                              : YUV\nChroma subsampling                       : 4:2:0\nBit depth                                : 8 bits\nScan type                                : Progressive\nCompression mode                         : Lossy\nBits/(Pixel*Frame)                       : 0.222\nStream size                              : 1.23 GiB (90%)\nWriting library                          : XviD 1.2.1 (UTC 2008-12-04)\n\nAudio\nID                                       : 1\nFormat                                   : AC-3\nFormat/Info                              : Audio Coding 3\nMode extension                           : CM (complete main)\nFormat settings, Endianness              : Big\nCodec ID                                 : 2000\nDuration                                 : 1h 35mn\nBit rate mode                            : Constant\nBit rate                                 : 192 Kbps\nChannel(s)                               : 2 channels\nChannel positions                        : Front: L R\nSampling rate                            : 48.0 KHz\nBit depth                                : 16 bits\nCompression mode                         : Lossy\nStream size                              : 132 MiB (9%)\nAlignment                                : Split accross interleaves\nInterleave, duration                     : 33 ms (1.00 video frame)\nInterleave, preload duration             : 500 ms\n\nScreens: &lt;a href=&quot;\nhttp://i5.imageban.ru/out/2014/08/16/affdd0a9913edf32f75e90b22fe77e05.png&quot; rel=&quot;nofollow&quot; target=&quot;_NEW&quot;&gt;\nhttp://i5.imageban.ru/out/2014/08/16/affdd0a9913edf32f75e90b22fe77e05.png&lt;/a&gt; &lt;a href=&quot;\nhttp://i1.imageban.ru/out/2014/08/16/4607186cdfc79d72c42c6644dc8dd0e4.png&quot; rel=&quot;nofollow&quot; target=&quot;_NEW&quot;&gt;\nhttp://i1.imageban.ru/out/2014/08/16/4607186cdfc79d72c42c6644dc8dd0e4.png&lt;/a&gt; &lt;a href=&quot;\nhttp://i5.imageban.ru/out/2014/08/16/8be9785184bec8a26f49fc9de9d87117.png&quot; rel=&quot;nofollow&quot; target=&quot;_NEW&quot;&gt;\nhttp://i5.imageban.ru/out/2014/08/16/8be9785184bec8a26f49fc9de9d87117.png&lt;/a&gt; &lt;a href=&quot;\nhttp://i5.imageban.ru/out/2014/08/16/a5f5854de65a9d6dd596703be11e562e.png&quot; rel=&quot;nofollow&quot; target=&quot;_NEW&quot;&gt;\nhttp://i5.imageban.ru/out/2014/08/16/a5f5854de65a9d6dd596703be11e562e.png&lt;/a&gt; &lt;a href=&quot;\nhttp://i6.imageban.ru/out/2014/08/16/4647807e0ff4dda60d7709326ef5617b.png&quot; rel=&quot;nofollow&quot; target=&quot;_NEW&quot;&gt;\nhttp://i6.imageban.ru/out/2014/08/16/4647807e0ff4dda60d7709326ef5617b.png&lt;/a&gt; &lt;a href=&quot;\nhttp://i6.imageban.ru/out/2014/08/16/f0d084d558fdfc4c35e7b95227bbc209.png&quot; rel=&quot;nofollow&quot; target=&quot;_NEW&quot;&gt;\nhttp://i6.imageban.ru/out/2014/08/16/f0d084d558fdfc4c35e7b95227bbc209.png&lt;/a&gt; &lt;a href=&quot;\nhttp://i4.imageban.ru/out/2014/08/16/e5e203c06315d477962497657a351b09.png&quot; rel=&quot;nofollow&quot; target=&quot;_NEW&quot;&gt;\nhttp://i4.imageban.ru/out/2014/08/16/e5e203c06315d477962497657a351b09.png&lt;/a&gt; &lt;a href=&quot;\nhttp://i6.imageban.ru/out/2014/08/16/3399b2c0427dc2ed783370f7f66b11e6.png&quot; rel=&quot;nofollow&quot; target=&quot;_NEW&quot;&gt;\nhttp://i6.imageban.ru/out/2014/08/16/3399b2c0427dc2ed783370f7f66b11e6.png&lt;/a&gt; &lt;a href=&quot;\nhttp://i1.imageban.ru/out/2014/08/16/b31cea4bc9053a5bb85e2feeade36eb6.png&quot; rel=&quot;nofollow&quot; target=&quot;_NEW&quot;&gt;\nhttp://i1.imageban.ru/out/2014/08/16/b31cea4bc9053a5bb85e2feeade36eb6.png&lt;/a&gt; &lt;a href=&quot;\nhttp://i4.imageban.ru/out/2014/08/16/3b38f74982594c11f6c4f011836dd61c.png&quot; rel=&quot;nofollow&quot; target=&quot;_NEW&quot;&gt;\nhttp://i4.imageban.ru/out/2014/08/16/3b38f74982594c11f6c4f011836dd61c.png&lt;/a&gt; &lt;a href=&quot;\nhttp://i6.imageban.ru/out/2014/08/16/7125387ab339c01dd7ec3b83d158b53c.png&quot; rel=&quot;nofollow&quot; target=&quot;_NEW&quot;&gt;\nhttp://i6.imageban.ru/out/2014/08/16/7125387ab339c01dd7ec3b83d158b53c.png&lt;/a&gt; &lt;a href=&quot;\nhttp://i5.imageban.ru/out/2014/08/16/18dbbbe836a7a1d0723a0ffec50beda9.png&quot; rel=&quot;nofollow&quot; target=&quot;_NEW&quot;&gt;\nhttp://i5.imageban.ru/out/2014/08/16/18dbbbe836a7a1d0723a0ffec50beda9.png&lt;/a&gt;\n\nSample: &lt;a href=&quot;\nhttp://sendfile.su/1011610&quot; rel=&quot;nofollow&quot; target=&quot;_NEW&quot;&gt;\nhttp://sendfile.su/1011610&lt;/a&gt;","torrent":{"xt":"urn:btih:2246cdcdfa32f1e3d02922923b8ca1c5a82130e0","amp;dn":"Wish+I+Was+Here+%282014%29+TS+%5BRUS%5D","amp;tr":["udp%3A%2F%2Ftracker.openbittorrent.com%3A80","udp%3A%2F%2Fopen.demonii.com%3A1337","udp%3A%2F%2Ftracker.coppersurfer.tk%3A6969","udp%3A%2F%2Fexodus.desync.com%3A6969"],"infoHash":"2246cdcdfa32f1e3d02922923b8ca1c5a82130e0","infoHashBuffer":{"type":"Buffer","data":[34,70,205,205,250,50,241,227,208,41,34,146,59,140,161,197,168,33,48,224]},"announce":[],"urlList":[]}}